# Blender 5.1.1
# www.blender.org
o Cube
v 1.000000 1.000000 -1.000000
v 1.000000 -1.000000 -1.000000
v 1.000000 1.000000 1.000000
v 1.000000 -1.000000 1.000000
v -1.000000 1.000000 -1.000000
v -1.000000 -1.000000 -1.000000
v -1.000000 1.000000 1.000000
v -1.000000 -1.000000 1.000000
v 2.222068 1.911183 2.222068
v -2.222068 1.911183 2.222068
v 2.222068 1.911183 -2.222068
v -2.222068 1.911183 -2.222068
vn -0.5977 -0.8017 -0.0000
vn -0.0000 -0.0000 1.0000
vn -1.0000 -0.0000 -0.0000
vn -0.0000 -1.0000 -0.0000
vn 1.0000 -0.0000 -0.0000
vn -0.0000 -0.0000 -1.0000
vn -0.0000 1.0000 -0.0000
vn 0.5977 -0.8017 -0.0000
vn -0.0000 -0.8017 -0.5977
vn -0.0000 -0.8017 0.5977
vt 0.625000 0.000000
vt 0.625000 0.250000
vt 0.625000 0.750000
vt 0.375000 1.000000
vt 0.375000 0.750000
vt 0.375000 0.250000
vt 0.375000 0.000000
vt 0.375000 0.500000
vt 0.125000 0.750000
vt 0.125000 0.500000
vt 0.625000 0.500000
vt 0.875000 0.500000
vt 0.625000 1.000000
vt 0.875000 0.750000
s 0
f 7/1/1 12/2/1 5/2/1
f 3/3/2 8/4/2 4/5/2
f 7/1/3 6/6/3 8/7/3
f 2/8/4 8/9/4 6/10/4
f 1/11/5 4/5/5 2/8/5
f 5/2/6 2/8/6 6/6/6
f 12/12/7 9/3/7 11/11/7
f 1/11/8 9/3/8 3/3/8
f 5/2/9 11/11/9 1/11/9
f 3/3/10 10/13/10 7/13/10
f 7/1/1 10/1/1 12/2/1
f 3/3/2 7/13/2 8/4/2
f 7/1/3 5/2/3 6/6/3
f 2/8/4 4/5/4 8/9/4
f 1/11/5 3/3/5 4/5/5
f 5/2/6 1/11/6 2/8/6
f 12/12/7 10/14/7 9/3/7
f 1/11/8 11/11/8 9/3/8
f 5/2/9 12/2/9 11/11/9
f 3/3/10 9/3/10 10/13/10
